<svg xmlns="http://www.w3.org/2000/svg" xmlns:xlink="http://www.w3.org/1999/xlink" width="547" height="90" viewBox="0 0 547 90">
  <defs>
    <clipPath id="clip-path">
      <rect id="사각형_1177" data-name="사각형 1177" width="547" height="90" fill="#fff"/>
    </clipPath>
    <clipPath id="clip-path-2">
      <rect id="사각형_1176" data-name="사각형 1176" width="581.232" height="564" fill="rgba(0,0,0,0)"/>
    </clipPath>
  </defs>
  <g id="header-bg" clip-path="url(#clip-path)">
    <g id="그룹_2538" data-name="그룹 2538" transform="translate(-66.13 -208)" opacity="0.32" style="mix-blend-mode: luminosity;isolation: isolate">
      <g id="그룹_2537" data-name="그룹 2537" transform="translate(-6 -74)" clip-path="url(#clip-path-2)">
        <path id="패스_964" data-name="패스 964" d="M435.453,269.162c-49.02-33.308-111.753-19.741-144.759,30.33-27.436,41.867-68.98,47.073-84.973,47.073-52.487,0-88.284-36.879-98.935-75.04h-.031c-.125-.416-.2-.75-.3-1.083-.1-.437-.187-.843-.323-1.281-4.175-15.951-5.237-23.531-5.237-40.44,0-91.189,93.625-192.748,228.368-192.748,138.022,0,217.018,105.058,237.436,163.49-.417-1.114-.739-2.1-1.083-3.113C526.454,82.1,418.148,0,290.559,0,130.13,0,0,130.078,0,290.642,0,434.11,103.485,556.92,247.057,556.92c114.449,0,191.415-64.18,226.65-152.651,19.387-48.426,5.7-105.255-38.254-135.107" transform="translate(0)" fill="#002c52"/>
        <path id="패스_965" data-name="패스 965" d="M477.275,172.577C460.251,115.592,380.744,3.454,238.058,3.454,103.315,3.454,9.69,105.024,9.69,196.212c0,16.92,1.062,24.479,5.237,40.43A85.385,85.385,0,0,1,12.283,215.9c0-94.989,95.093-160.783,192.852-160.783,132.358,0,239.654,107.275,239.654,239.592a264.2,264.2,0,0,1-146.414,236.7v.083c111.815-40.5,191.655-147.6,191.655-273.368,0-29.778-3.988-56.027-12.755-85.545" transform="translate(91.203 32.509)" fill="#e5002b"/>
      </g>
    </g>
  </g>
</svg>
