<svg xmlns="http://www.w3.org/2000/svg" xmlns:xlink="http://www.w3.org/1999/xlink" width="11.486" height="11.487" viewBox="0 0 11.486 11.487">
  <defs>
    <clipPath id="clip-path">
      <rect id="사각형_871" data-name="사각형 871" width="11.486" height="11.487" fill="#222"/>
    </clipPath>
  </defs>
  <g id="sub-home" transform="translate(0 0)">
    <g id="그룹_2439" data-name="그룹 2439" transform="translate(0 0)" clip-path="url(#clip-path)">
      <path id="패스_949" data-name="패스 949" d="M11.177,5h0L6.491.31A1.057,1.057,0,0,0,5,.31L.312,4.993l0,0a1.057,1.057,0,0,0,.7,1.8l.033,0H1.23v3.448a1.239,1.239,0,0,0,1.238,1.237H4.3a.336.336,0,0,0,.337-.337v-2.7A.565.565,0,0,1,5.2,7.882H6.284a.565.565,0,0,1,.565.565v2.7a.337.337,0,0,0,.337.337H9.018a1.239,1.239,0,0,0,1.238-1.237V6.8h.173A1.058,1.058,0,0,0,11.177,5M10.7,6.015a.382.382,0,0,1-.272.113h-.51a.337.337,0,0,0-.337.337v3.785a.565.565,0,0,1-.565.565h-1.5V8.447A1.239,1.239,0,0,0,6.284,7.209H5.2A1.239,1.239,0,0,0,3.965,8.447v2.367h-1.5a.565.565,0,0,1-.565-.565V6.464a.337.337,0,0,0-.337-.337H1.05a.384.384,0,0,1-.265-.656h0L5.471.786a.384.384,0,0,1,.543,0L10.7,5.47l0,0a.385.385,0,0,1,0,.543" transform="translate(0 0)" fill="#222"/>
    </g>
  </g>
</svg>
